<svg xmlns="http://www.w3.org/2000/svg" viewBox="0 0 64 64" width="64" height="64">
  <defs>
    <linearGradient id="bg" x1="0" y1="0" x2="0" y2="1">
      <stop offset="0" stop-color="#111a2d"/>
      <stop offset="1" stop-color="#090d16"/>
    </linearGradient>
    <linearGradient id="gl" x1="0" y1="1" x2="1" y2="0">
      <stop offset="0" stop-color="#39d8ff"/>
      <stop offset="1" stop-color="#51b7ff"/>
    </linearGradient>
    <linearGradient id="gr" x1="0" y1="1" x2="1" y2="0">
      <stop offset="0" stop-color="#6a97ff"/>
      <stop offset="1" stop-color="#8a6bff"/>
    </linearGradient>
  </defs>
  <rect x="0.5" y="0.5" width="63" height="63" rx="14.08" fill="url(#bg)" stroke="#243046" stroke-width="1.1"/>
  <path d="M887 531V836H1587V211Q1386 74 1231.5 24.5Q1077 -25 865 -25Q604 -25 439.5 64.0Q275 153 184.5 329.0Q94 505 94 733Q94 973 193.0 1150.5Q292 1328 483 1420Q632 1491 884 1491Q1127 1491 1247.5 1447.0Q1368 1403 1447.5 1310.5Q1527 1218 1567 1076L1130 998Q1103 1081 1038.5 1125.0Q974 1169 874 1169Q725 1169 636.5 1065.5Q548 962 548 738Q548 500 637.5 398.0Q727 296 887 296Q963 296 1032.0 318.0Q1101 340 1190 393V531Z" transform="matrix(0.01820,0,0,-0.01820,1.3398,46.6233)" fill="url(#gl)"/>
  <path d="M111 420 413 722 109 1025 295 1211 599 908 901 1210 1082 1028 780 726 1085 421 899 235 594 540 292 238Z" transform="matrix(0.01810,0,0,-0.01810,21.1953,45.7251)" fill="#ff5a8a"/>
  <path d="M887 531V836H1587V211Q1386 74 1231.5 24.5Q1077 -25 865 -25Q604 -25 439.5 64.0Q275 153 184.5 329.0Q94 505 94 733Q94 973 193.0 1150.5Q292 1328 483 1420Q632 1491 884 1491Q1127 1491 1247.5 1447.0Q1368 1403 1447.5 1310.5Q1527 1218 1567 1076L1130 998Q1103 1081 1038.5 1125.0Q974 1169 874 1169Q725 1169 636.5 1065.5Q548 962 548 738Q548 500 637.5 398.0Q727 296 887 296Q963 296 1032.0 318.0Q1101 340 1190 393V531Z" transform="matrix(0.01820,0,0,-0.01820,32.0598,46.6233)" fill="url(#gr)"/>
</svg>
